<mxfile host="app.diagrams.net" modified="2023-10-01T10:48:55.136Z" agent="Mozilla/5.0 (Windows NT 10.0; Win64; x64) AppleWebKit/537.36 (KHTML, like Gecko) Chrome/117.0.0.0 Safari/537.36" version="21.8.2" etag="aJiap2H15be_aU4tJoQe" type="github">
  <diagram name="Trang-1" id="dhUPOjY1wtYN7JJt_BCk">
    <mxGraphModel>
      <root>
        <mxCell id="0" />
        <mxCell id="1" parent="0" />
      </root>
    </mxGraphModel>
  </diagram>
</mxfile>
